<svg width="63" height="24" viewBox="0 0 63 24" fill="none" xmlns="http://www.w3.org/2000/svg">
<rect x="0.833008" y="-0.000488281" width="61.3346" height="24.0005" rx="8.53351" fill="#FEA9CA"/>
<path d="M47.1706 17.1969C45.9871 17.1969 45.09 16.8024 44.4793 16.0134C43.8686 15.2243 43.5632 14.0435 43.5632 12.4708C43.5632 10.909 43.874 9.73085 44.4955 8.93642C45.117 8.13658 46.0087 7.73666 47.1706 7.73666C48.7811 7.73666 49.7593 8.71754 50.1052 10.6793H50.3078C50.0971 9.76598 49.9917 8.84184 49.9917 7.9069V6.13504C49.9917 6.00518 50.082 5.89279 50.2088 5.86483L52.7926 5.2951C52.9653 5.25702 53.1289 5.38848 53.1289 5.56531V16.1248C53.1289 16.2528 53.0411 16.3641 52.9167 16.3939L50.5842 16.953C50.4102 16.9947 50.243 16.8628 50.243 16.6839V14.2786H50.1052C49.9322 15.2622 49.6026 15.9945 49.1162 16.4754C48.6352 16.9564 47.9867 17.1969 47.1706 17.1969ZM48.3947 10.0794C47.3138 10.0794 46.7734 10.8766 46.7734 12.4708C46.7734 14.0651 47.3138 14.8623 48.3947 14.8623C48.9567 14.8623 49.3621 14.6731 49.6107 14.2948C49.8647 13.9111 49.9917 13.3031 49.9917 12.4708C49.9917 11.6494 49.8647 11.0468 49.6107 10.6631C49.3567 10.274 48.9513 10.0794 48.3947 10.0794Z" fill="#0F091A"/>
<path d="M37.1125 19.3614C36.8754 19.3614 36.6262 19.3511 36.365 19.3305C36.2452 19.321 36.1467 19.2332 36.1211 19.1157L35.6989 17.1786C35.6575 16.9885 35.8202 16.8157 36.0138 16.8352C36.2616 16.8602 36.5116 16.8727 36.764 16.8727C37.3801 16.8835 37.8664 16.8295 38.2231 16.7106C38.5852 16.5863 38.8554 16.3836 39.0338 16.1026L39.0013 16.0864H37.1748C37.0554 16.0864 36.9494 16.0098 36.912 15.8964L34.3726 8.20183C34.3207 8.04476 34.4174 7.8776 34.5794 7.84413L37.3492 7.27182C37.5001 7.24066 37.6473 7.33866 37.6768 7.48983L39.05 14.53H39.1878L40.5606 8.08401C40.5835 7.97646 40.6679 7.89268 40.7756 7.87059L43.5117 7.30935C43.718 7.26703 43.8941 7.46148 43.8315 7.66256L41.109 16.4188C41.0064 16.743 40.8983 17.0268 40.7848 17.27C40.6767 17.5131 40.5146 17.7726 40.2984 18.0482C40.0876 18.3292 39.8471 18.5589 39.5769 18.7372C39.3121 18.9156 38.9662 19.0642 38.5393 19.1831C38.1177 19.302 37.6422 19.3614 37.1125 19.3614Z" fill="#0F091A"/>
<path d="M27.7659 16.9206C26.8039 16.9206 26.0554 16.6936 25.5204 16.2397C24.9907 15.7857 24.7259 15.1453 24.7259 14.3184C24.7259 13.7942 24.8367 13.3565 25.0583 13.0052C25.2853 12.6539 25.5744 12.3999 25.9257 12.2432C26.2824 12.0864 26.6769 11.9676 27.1092 11.8865C27.5416 11.8054 27.9739 11.7514 28.4063 11.7244C28.8386 11.6919 29.2304 11.6514 29.5817 11.6028C29.9384 11.5541 30.2275 11.4595 30.4491 11.319C30.6761 11.1785 30.7896 10.9786 30.7896 10.7192C30.7896 10.4057 30.6788 10.149 30.4572 9.94904C30.2356 9.74908 29.887 9.6491 29.4115 9.6491C28.8927 9.6491 28.4254 9.70044 28.1606 9.94904C27.9556 10.1455 27.8787 10.2619 27.8555 10.4994C27.843 10.6271 27.7588 10.739 27.634 10.7685L25.2691 11.3291C25.0953 11.3703 24.9298 11.2385 24.9383 11.0601C24.9555 10.7013 24.9955 10.2495 25.0583 10.022C25.1448 9.70855 25.2961 9.3951 25.5123 9.08165C25.7338 8.76279 26.0122 8.48717 26.3472 8.25478C26.6877 8.0224 27.1281 7.83595 27.6686 7.69544C28.209 7.54952 28.8224 7.47656 29.5087 7.47656C30.9787 7.47656 32.0839 7.78191 32.8243 8.3926C33.5701 9.00328 33.943 9.83285 33.943 10.8813V13.9861C33.943 14.3265 34.0646 14.4968 34.3078 14.4968C34.4069 14.4968 34.507 14.4644 34.6083 14.3996C34.6962 14.3433 34.8228 14.3742 34.8533 14.4741L35.4226 16.3422C35.4559 16.4514 35.4132 16.563 35.3029 16.5927C34.9796 16.6796 34.3465 16.7511 34.1051 16.8071C33.8025 16.8828 33.4917 16.9206 33.1729 16.9206C31.8002 16.9206 31.1138 16.2181 31.1138 14.8129V14.1887H30.9679C30.9517 14.4644 30.9058 14.7292 30.8301 14.9832C30.7598 15.2318 30.6437 15.4777 30.4815 15.7209C30.3194 15.9586 30.1221 16.164 29.8898 16.3369C29.6574 16.5099 29.3574 16.6504 28.9899 16.7585C28.6278 16.8666 28.2198 16.9206 27.7659 16.9206ZM27.8631 13.6861C27.8631 14.005 27.9739 14.2509 28.1955 14.4238C28.4171 14.5968 28.7224 14.6832 29.1115 14.6832C29.4952 14.6832 29.8168 14.5968 30.0762 14.4238C30.341 14.2455 30.5248 14.0347 30.6274 13.7915C30.7355 13.5483 30.7896 13.2862 30.7896 13.0052V11.6595H30.6518C30.5923 11.8757 30.4545 12.0486 30.2383 12.1783C30.0276 12.308 29.7898 12.4053 29.525 12.4702C29.2656 12.5296 29.0088 12.5945 28.7548 12.6647C28.5008 12.735 28.2874 12.8539 28.1144 13.0214C27.9469 13.1889 27.8631 13.4105 27.8631 13.6861Z" fill="#0F091A"/>
<path d="M20.9362 16.9606C20.7635 16.9987 20.5999 16.8673 20.5999 16.6904V6.13504C20.5999 6.00518 20.6902 5.89279 20.817 5.86483L23.4008 5.2951C23.5735 5.25702 23.7371 5.38848 23.7371 5.56531V16.1207C23.7371 16.2506 23.6468 16.363 23.52 16.3909L20.9362 16.9606Z" fill="#0F091A"/>
<path d="M14.5681 17.2208C11.0988 17.2208 9.31927 16.4048 9.22953 13.7499C9.22526 13.6236 9.31151 13.5125 9.43387 13.4811L12.115 12.793C12.29 12.7481 12.4609 12.8806 12.4809 13.0602C12.5349 13.5444 12.6956 14.0631 12.963 14.3348C13.3035 14.6753 13.8331 14.8456 14.5519 14.8456C15.7841 14.8456 16.4002 14.4402 16.4002 13.6296C16.4002 13.462 16.3678 13.3188 16.3029 13.1999C16.2381 13.0756 16.1543 12.9784 16.0516 12.9081C15.9543 12.8379 15.8138 12.7784 15.6301 12.7298C15.4463 12.6757 15.2707 12.6379 15.1032 12.6163C14.9356 12.5947 14.714 12.573 14.4384 12.5514C13.3359 12.4704 12.582 12.3893 12.1767 12.3082C10.9175 12.0704 10.096 11.5678 9.71234 10.8004C9.52319 10.4275 9.42861 9.98167 9.42861 9.46285C9.42861 8.43063 9.86636 7.60917 10.7419 6.99848C11.6174 6.38239 12.8387 6.07434 14.406 6.07434C15.1518 6.07434 15.8273 6.15811 16.4326 6.32564C17.0379 6.48777 17.5702 6.73367 18.0296 7.06333C18.489 7.393 18.8429 7.82804 19.0915 8.36848C19.3165 8.84229 19.4418 8.83928 19.4676 9.32034C19.4743 9.44546 19.3884 9.55562 19.2673 9.58798L16.7159 10.2701C16.5402 10.3171 16.368 10.1841 16.3428 10.004C16.2835 9.58165 16.1189 9.18448 15.8489 8.94404C15.5085 8.63599 15.0383 8.48197 14.4384 8.48197C13.871 8.48197 13.4359 8.59005 13.1333 8.80623C12.8306 9.01699 12.6793 9.30883 12.6793 9.68173C12.6793 9.86547 12.7144 10.0222 12.7847 10.1519C12.855 10.2762 12.9441 10.3762 13.0522 10.4518C13.1603 10.5275 13.3278 10.5924 13.5548 10.6464C13.7872 10.695 14.0088 10.7302 14.2195 10.7518C14.4303 10.7734 14.7303 10.7977 15.1194 10.8247C15.7409 10.8734 16.2705 10.9328 16.7082 11.0031C17.1514 11.0733 17.5675 11.1787 17.9566 11.3192C18.3512 11.4597 18.6646 11.6354 18.897 11.8462C19.1348 12.0515 19.3185 12.3163 19.4482 12.6406C19.5833 12.9594 19.6509 13.335 19.6509 13.7674C19.6509 14.8969 19.2212 15.7562 18.362 16.3453C17.5027 16.9289 16.2381 17.2208 14.5681 17.2208Z" fill="#0F091A"/>
</svg>
